# xmcd
#
# Track frame offsets: 
#        150
#        17634
#        34770
#        50412
#        59511
#        89621
#        132106
#
# Disc length: 2233 seconds
#
# Revision: 4
# Processed by: cddbd v1.5.2PL0 Copyright (c) Steve Scherf et al.
# Submitted via: ExactAudioCopyFreeDBPlugin 1.0
#
DISCID=5908b707
DTITLE=Curtis Mayfield - 1971 - Curtis Mayfield Live! Cd 2
DYEAR=1971
DGENRE=Blues
TTITLE0=Check Out Your Mind
TTITLE1=Gypsy Woman
TTITLE2=The Makings Of You
TTITLE3=Rap
TTITLE4=We The People Who Are Darker Than Blue
TTITLE5=(Don't Worry) If There's A Hell Bellow We're All Gonna Go
TTITLE6=Stone Junkie
EXTD=
EXTT0=
EXTT1=
EXTT2=
EXTT3=
EXTT4=
EXTT5=
EXTT6=
PLAYORDER=
